# Tiled2Unity generated file. Do not modify by hand.
# Wavefront file for 'map1_mesh_0003.obj'

# Vertices (Count = 268)
v -51 -39 0
v -52 -39 0
v -52 -38 0
v -51 -38 0
v -50 -39 0
v -51 -39 0
v -51 -38 0
v -50 -38 0
v -49 -39 0
v -50 -39 0
v -50 -38 0
v -49 -38 0
v -48 -39 0
v -49 -39 0
v -49 -38 0
v -48 -38 0
v -47 -39 0
v -48 -39 0
v -48 -38 0
v -47 -38 0
v -46 -39 0
v -47 -39 0
v -47 -38 0
v -46 -38 0
v -45 -39 0
v -46 -39 0
v -46 -38 0
v -45 -38 0
v -44 -39 0
v -45 -39 0
v -45 -38 0
v -44 -38 0
v -43 -39 0
v -44 -39 0
v -44 -38 0
v -43 -38 0
v -42 -39 0
v -43 -39 0
v -43 -38 0
v -42 -38 0
v -41 -39 0
v -42 -39 0
v -42 -38 0
v -41 -38 0
v -40 -39 0
v -41 -39 0
v -41 -38 0
v -40 -38 0
v -39 -39 0
v -40 -39 0
v -40 -38 0
v -39 -38 0
v -38 -39 0
v -39 -39 0
v -39 -38 0
v -38 -38 0
v -37 -39 0
v -38 -39 0
v -38 -38 0
v -37 -38 0
v -36 -39 0
v -37 -39 0
v -37 -38 0
v -36 -38 0
v -35 -39 0
v -36 -39 0
v -36 -38 0
v -35 -38 0
v -34 -39 0
v -35 -39 0
v -35 -38 0
v -34 -38 0
v -33 -39 0
v -34 -39 0
v -34 -38 0
v -33 -38 0
v -32 -39 0
v -33 -39 0
v -33 -38 0
v -32 -38 0
v -31 -39 0
v -32 -39 0
v -32 -38 0
v -31 -38 0
v -30 -39 0
v -31 -39 0
v -31 -38 0
v -30 -38 0
v -30 -40 0
v -31 -40 0
v -31 -39 0
v -30 -39 0
v -30 -41 0
v -31 -41 0
v -31 -40 0
v -30 -40 0
v -30 -42 0
v -31 -42 0
v -31 -41 0
v -30 -41 0
v -35 -43 0
v -36 -43 0
v -36 -42 0
v -35 -42 0
v -34 -43 0
v -35 -43 0
v -35 -42 0
v -34 -42 0
v -33 -43 0
v -34 -43 0
v -34 -42 0
v -33 -42 0
v -30 -43 0
v -31 -43 0
v -31 -42 0
v -30 -42 0
v -35 -44 0
v -36 -44 0
v -36 -43 0
v -35 -43 0
v -34 -44 0
v -35 -44 0
v -35 -43 0
v -34 -43 0
v -33 -44 0
v -34 -44 0
v -34 -43 0
v -33 -43 0
v -30 -44 0
v -31 -44 0
v -31 -43 0
v -30 -43 0
v -35 -45 0
v -36 -45 0
v -36 -44 0
v -35 -44 0
v -34 -45 0
v -35 -45 0
v -35 -44 0
v -34 -44 0
v -33 -45 0
v -34 -45 0
v -34 -44 0
v -33 -44 0
v -30 -45 0
v -31 -45 0
v -31 -44 0
v -30 -44 0
v -30 -46 0
v -31 -46 0
v -31 -45 0
v -30 -45 0
v -30 -47 0
v -31 -47 0
v -31 -46 0
v -30 -46 0
v -30 -48 0
v -31 -48 0
v -31 -47 0
v -30 -47 0
v -30 -49 0
v -31 -49 0
v -31 -48 0
v -30 -48 0
v -30 -50 0
v -31 -50 0
v -31 -49 0
v -30 -49 0
v -30 -51 0
v -31 -51 0
v -31 -50 0
v -30 -50 0
v -30 -52 0
v -31 -52 0
v -31 -51 0
v -30 -51 0
v -30 -53 0
v -31 -53 0
v -31 -52 0
v -30 -52 0
v -51 -54 0
v -52 -54 0
v -52 -53 0
v -51 -53 0
v -50 -54 0
v -51 -54 0
v -51 -53 0
v -50 -53 0
v -49 -54 0
v -50 -54 0
v -50 -53 0
v -49 -53 0
v -48 -54 0
v -49 -54 0
v -49 -53 0
v -48 -53 0
v -47 -54 0
v -48 -54 0
v -48 -53 0
v -47 -53 0
v -46 -54 0
v -47 -54 0
v -47 -53 0
v -46 -53 0
v -45 -54 0
v -46 -54 0
v -46 -53 0
v -45 -53 0
v -44 -54 0
v -45 -54 0
v -45 -53 0
v -44 -53 0
v -43 -54 0
v -44 -54 0
v -44 -53 0
v -43 -53 0
v -42 -54 0
v -43 -54 0
v -43 -53 0
v -42 -53 0
v -41 -54 0
v -42 -54 0
v -42 -53 0
v -41 -53 0
v -40 -54 0
v -41 -54 0
v -41 -53 0
v -40 -53 0
v -39 -54 0
v -40 -54 0
v -40 -53 0
v -39 -53 0
v -38 -54 0
v -39 -54 0
v -39 -53 0
v -38 -53 0
v -37 -54 0
v -38 -54 0
v -38 -53 0
v -37 -53 0
v -36 -54 0
v -37 -54 0
v -37 -53 0
v -36 -53 0
v -35 -54 0
v -36 -54 0
v -36 -53 0
v -35 -53 0
v -34 -54 0
v -35 -54 0
v -35 -53 0
v -34 -53 0
v -33 -54 0
v -34 -54 0
v -34 -53 0
v -33 -53 0
v -32 -54 0
v -33 -54 0
v -33 -53 0
v -32 -53 0
v -31 -54 0
v -32 -54 0
v -32 -53 0
v -31 -53 0
v -30 -54 0
v -31 -54 0
v -31 -53 0
v -30 -53 0

# Texture cooridinates (Count = 28)
vt 0.1 0.5
vt 0.125 0.5
vt 0.125 0.5277778
vt 0.1 0.5277778
vt 0.05 0.5
vt 0.075 0.5
vt 0.075 0.5277778
vt 0.05 0.5277778
vt 0.1 0.4722222
vt 0.125 0.4722222
vt 0.075 0.6111111
vt 0.1 0.6111111
vt 0.1 0.6388889
vt 0.075 0.6388889
vt 0.05 0.6111111
vt 0.05 0.6388889
vt 0.025 0.6111111
vt 0.025 0.6388889
vt 0.075 0.5833334
vt 0.1 0.5833334
vt 0.05 0.5833334
vt 0.025 0.5833334
vt 0.075 0.5555556
vt 0.1 0.5555556
vt 0.05 0.5555556
vt 0.025 0.5555556
vt 0.05 0.4722222
vt 0.075 0.4722222

# Normal
vn 0 0 -1

# Mesh description
g map1_mesh_0003

# Faces
f 1/1/1 2/2/1 3/3/1 4/4/1
f 5/1/1 6/2/1 7/3/1 8/4/1
f 9/1/1 10/2/1 11/3/1 12/4/1
f 13/1/1 14/2/1 15/3/1 16/4/1
f 17/1/1 18/2/1 19/3/1 20/4/1
f 21/1/1 22/2/1 23/3/1 24/4/1
f 25/1/1 26/2/1 27/3/1 28/4/1
f 29/1/1 30/2/1 31/3/1 32/4/1
f 33/1/1 34/2/1 35/3/1 36/4/1
f 37/1/1 38/2/1 39/3/1 40/4/1
f 41/1/1 42/2/1 43/3/1 44/4/1
f 45/1/1 46/2/1 47/3/1 48/4/1
f 49/1/1 50/2/1 51/3/1 52/4/1
f 53/1/1 54/2/1 55/3/1 56/4/1
f 57/1/1 58/2/1 59/3/1 60/4/1
f 61/1/1 62/2/1 63/3/1 64/4/1
f 65/1/1 66/2/1 67/3/1 68/4/1
f 69/1/1 70/2/1 71/3/1 72/4/1
f 73/1/1 74/2/1 75/3/1 76/4/1
f 77/1/1 78/2/1 79/3/1 80/4/1
f 81/1/1 82/2/1 83/3/1 84/4/1
f 85/5/1 86/6/1 87/7/1 88/8/1
f 89/9/1 90/10/1 91/2/1 92/1/1
f 93/9/1 94/10/1 95/2/1 96/1/1
f 97/9/1 98/10/1 99/2/1 100/1/1
f 101/11/1 102/12/1 103/13/1 104/14/1
f 105/15/1 106/11/1 107/14/1 108/16/1
f 109/17/1 110/15/1 111/16/1 112/18/1
f 113/9/1 114/10/1 115/2/1 116/1/1
f 117/19/1 118/20/1 119/12/1 120/11/1
f 121/21/1 122/19/1 123/11/1 124/15/1
f 125/22/1 126/21/1 127/15/1 128/17/1
f 129/9/1 130/10/1 131/2/1 132/1/1
f 133/23/1 134/24/1 135/20/1 136/19/1
f 137/25/1 138/23/1 139/19/1 140/21/1
f 141/26/1 142/25/1 143/21/1 144/22/1
f 145/9/1 146/10/1 147/2/1 148/1/1
f 149/9/1 150/10/1 151/2/1 152/1/1
f 153/9/1 154/10/1 155/2/1 156/1/1
f 157/9/1 158/10/1 159/2/1 160/1/1
f 161/9/1 162/10/1 163/2/1 164/1/1
f 165/9/1 166/10/1 167/2/1 168/1/1
f 169/9/1 170/10/1 171/2/1 172/1/1
f 173/9/1 174/10/1 175/2/1 176/1/1
f 177/9/1 178/10/1 179/2/1 180/1/1
f 181/1/1 182/2/1 183/3/1 184/4/1
f 185/1/1 186/2/1 187/3/1 188/4/1
f 189/1/1 190/2/1 191/3/1 192/4/1
f 193/1/1 194/2/1 195/3/1 196/4/1
f 197/1/1 198/2/1 199/3/1 200/4/1
f 201/1/1 202/2/1 203/3/1 204/4/1
f 205/1/1 206/2/1 207/3/1 208/4/1
f 209/1/1 210/2/1 211/3/1 212/4/1
f 213/1/1 214/2/1 215/3/1 216/4/1
f 217/1/1 218/2/1 219/3/1 220/4/1
f 221/1/1 222/2/1 223/3/1 224/4/1
f 225/1/1 226/2/1 227/3/1 228/4/1
f 229/1/1 230/2/1 231/3/1 232/4/1
f 233/1/1 234/2/1 235/3/1 236/4/1
f 237/1/1 238/2/1 239/3/1 240/4/1
f 241/1/1 242/2/1 243/3/1 244/4/1
f 245/1/1 246/2/1 247/3/1 248/4/1
f 249/1/1 250/2/1 251/3/1 252/4/1
f 253/1/1 254/2/1 255/3/1 256/4/1
f 257/1/1 258/2/1 259/3/1 260/4/1
f 261/1/1 262/2/1 263/3/1 264/4/1
f 265/27/1 266/28/1 267/6/1 268/5/1

