# Tiled2Unity generated file. Do not modify by hand.
# Wavefront file for 'map1_mesh_0006.obj'

# Vertices (Count = 380)
v -52 -39 0
v -53 -39 0
v -53 -38 0
v -52 -38 0
v -43 -39 0
v -44 -39 0
v -44 -38 0
v -43 -38 0
v -42 -39 0
v -43 -39 0
v -43 -38 0
v -42 -38 0
v -41 -39 0
v -42 -39 0
v -42 -38 0
v -41 -38 0
v -40 -39 0
v -41 -39 0
v -41 -38 0
v -40 -38 0
v -39 -39 0
v -40 -39 0
v -40 -38 0
v -39 -38 0
v -37 -39 0
v -38 -39 0
v -38 -38 0
v -37 -38 0
v -36 -39 0
v -37 -39 0
v -37 -38 0
v -36 -38 0
v -52 -40 0
v -53 -40 0
v -53 -39 0
v -52 -39 0
v -43 -40 0
v -44 -40 0
v -44 -39 0
v -43 -39 0
v -42 -40 0
v -43 -40 0
v -43 -39 0
v -42 -39 0
v -41 -40 0
v -42 -40 0
v -42 -39 0
v -41 -39 0
v -40 -40 0
v -41 -40 0
v -41 -39 0
v -40 -39 0
v -39 -40 0
v -40 -40 0
v -40 -39 0
v -39 -39 0
v -37 -40 0
v -38 -40 0
v -38 -39 0
v -37 -39 0
v -36 -40 0
v -37 -40 0
v -37 -39 0
v -36 -39 0
v -33 -40 0
v -34 -40 0
v -34 -39 0
v -33 -39 0
v -32 -40 0
v -33 -40 0
v -33 -39 0
v -32 -39 0
v -52 -41 0
v -53 -41 0
v -53 -40 0
v -52 -40 0
v -51 -41 0
v -52 -41 0
v -52 -40 0
v -51 -40 0
v -45 -41 0
v -46 -41 0
v -46 -40 0
v -45 -40 0
v -43 -41 0
v -44 -41 0
v -44 -40 0
v -43 -40 0
v -42 -41 0
v -43 -41 0
v -43 -40 0
v -42 -40 0
v -41 -41 0
v -42 -41 0
v -42 -40 0
v -41 -40 0
v -40 -41 0
v -41 -41 0
v -41 -40 0
v -40 -40 0
v -39 -41 0
v -40 -41 0
v -40 -40 0
v -39 -40 0
v -37 -41 0
v -38 -41 0
v -38 -40 0
v -37 -40 0
v -36 -41 0
v -37 -41 0
v -37 -40 0
v -36 -40 0
v -33 -41 0
v -34 -41 0
v -34 -40 0
v -33 -40 0
v -32 -41 0
v -33 -41 0
v -33 -40 0
v -32 -40 0
v -52 -42 0
v -53 -42 0
v -53 -41 0
v -52 -41 0
v -51 -42 0
v -52 -42 0
v -52 -41 0
v -51 -41 0
v -44 -42 0
v -45 -42 0
v -45 -41 0
v -44 -41 0
v -43 -42 0
v -44 -42 0
v -44 -41 0
v -43 -41 0
v -42 -42 0
v -43 -42 0
v -43 -41 0
v -42 -41 0
v -41 -42 0
v -42 -42 0
v -42 -41 0
v -41 -41 0
v -40 -42 0
v -41 -42 0
v -41 -41 0
v -40 -41 0
v -39 -42 0
v -40 -42 0
v -40 -41 0
v -39 -41 0
v -52 -43 0
v -53 -43 0
v -53 -42 0
v -52 -42 0
v -51 -43 0
v -52 -43 0
v -52 -42 0
v -51 -42 0
v -44 -43 0
v -45 -43 0
v -45 -42 0
v -44 -42 0
v -43 -43 0
v -44 -43 0
v -44 -42 0
v -43 -42 0
v -42 -43 0
v -43 -43 0
v -43 -42 0
v -42 -42 0
v -41 -43 0
v -42 -43 0
v -42 -42 0
v -41 -42 0
v -40 -43 0
v -41 -43 0
v -41 -42 0
v -40 -42 0
v -39 -43 0
v -40 -43 0
v -40 -42 0
v -39 -42 0
v -35 -43 0
v -36 -43 0
v -36 -42 0
v -35 -42 0
v -34 -43 0
v -35 -43 0
v -35 -42 0
v -34 -42 0
v -33 -43 0
v -34 -43 0
v -34 -42 0
v -33 -42 0
v -52 -44 0
v -53 -44 0
v -53 -43 0
v -52 -43 0
v -51 -44 0
v -52 -44 0
v -52 -43 0
v -51 -43 0
v -46 -44 0
v -47 -44 0
v -47 -43 0
v -46 -43 0
v -45 -44 0
v -46 -44 0
v -46 -43 0
v -45 -43 0
v -44 -44 0
v -45 -44 0
v -45 -43 0
v -44 -43 0
v -40 -44 0
v -41 -44 0
v -41 -43 0
v -40 -43 0
v -35 -44 0
v -36 -44 0
v -36 -43 0
v -35 -43 0
v -34 -44 0
v -35 -44 0
v -35 -43 0
v -34 -43 0
v -33 -44 0
v -34 -44 0
v -34 -43 0
v -33 -43 0
v -52 -45 0
v -53 -45 0
v -53 -44 0
v -52 -44 0
v -51 -45 0
v -52 -45 0
v -52 -44 0
v -51 -44 0
v -35 -45 0
v -36 -45 0
v -36 -44 0
v -35 -44 0
v -34 -45 0
v -35 -45 0
v -35 -44 0
v -34 -44 0
v -33 -45 0
v -34 -45 0
v -34 -44 0
v -33 -44 0
v -52 -46 0
v -53 -46 0
v -53 -45 0
v -52 -45 0
v -51 -46 0
v -52 -46 0
v -52 -45 0
v -51 -45 0
v -46 -46 0
v -47 -46 0
v -47 -45 0
v -46 -45 0
v -45 -46 0
v -46 -46 0
v -46 -45 0
v -45 -45 0
v -44 -46 0
v -45 -46 0
v -45 -45 0
v -44 -45 0
v -35 -46 0
v -36 -46 0
v -36 -45 0
v -35 -45 0
v -34 -46 0
v -35 -46 0
v -35 -45 0
v -34 -45 0
v -33 -46 0
v -34 -46 0
v -34 -45 0
v -33 -45 0
v -52 -47 0
v -53 -47 0
v -53 -46 0
v -52 -46 0
v -46 -47 0
v -47 -47 0
v -47 -46 0
v -46 -46 0
v -45 -47 0
v -46 -47 0
v -46 -46 0
v -45 -46 0
v -44 -47 0
v -45 -47 0
v -45 -46 0
v -44 -46 0
v -35 -47 0
v -36 -47 0
v -36 -46 0
v -35 -46 0
v -34 -47 0
v -35 -47 0
v -35 -46 0
v -34 -46 0
v -33 -47 0
v -34 -47 0
v -34 -46 0
v -33 -46 0
v -52 -48 0
v -53 -48 0
v -53 -47 0
v -52 -47 0
v -46 -48 0
v -47 -48 0
v -47 -47 0
v -46 -47 0
v -45 -48 0
v -46 -48 0
v -46 -47 0
v -45 -47 0
v -44 -48 0
v -45 -48 0
v -45 -47 0
v -44 -47 0
v -35 -48 0
v -36 -48 0
v -36 -47 0
v -35 -47 0
v -34 -48 0
v -35 -48 0
v -35 -47 0
v -34 -47 0
v -33 -48 0
v -34 -48 0
v -34 -47 0
v -33 -47 0
v -52 -49 0
v -53 -49 0
v -53 -48 0
v -52 -48 0
v -52 -50 0
v -53 -50 0
v -53 -49 0
v -52 -49 0
v -34 -50 0
v -35 -50 0
v -35 -49 0
v -34 -49 0
v -33 -50 0
v -34 -50 0
v -34 -49 0
v -33 -49 0
v -52 -51 0
v -53 -51 0
v -53 -50 0
v -52 -50 0
v -34 -51 0
v -35 -51 0
v -35 -50 0
v -34 -50 0
v -33 -51 0
v -34 -51 0
v -34 -50 0
v -33 -50 0
v -52 -52 0
v -53 -52 0
v -53 -51 0
v -52 -51 0
v -52 -53 0
v -53 -53 0
v -53 -52 0
v -52 -52 0
v -52 -54 0
v -53 -54 0
v -53 -53 0
v -52 -53 0

# Texture cooridinates (Count = 124)
vt 0.075 0.5
vt 0.1 0.5
vt 0.1 0.5277778
vt 0.075 0.5277778
vt 0.25 0.9722222
vt 0.275 0.9722222
vt 0.275 1
vt 0.25 1
vt 0.225 0.9722222
vt 0.225 1
vt 0.2 0.9722222
vt 0.2 1
vt 0.175 0.9722222
vt 0.175 1
vt 0.15 0.9722222
vt 0.15 1
vt 0.35 0.8333333
vt 0.375 0.8333333
vt 0.375 0.8611111
vt 0.35 0.8611111
vt 0.325 0.8333333
vt 0.325 0.8611111
vt 0.1 0.4722222
vt 0.125 0.4722222
vt 0.125 0.5
vt 0.25 0.9444444
vt 0.275 0.9444444
vt 0.225 0.9444444
vt 0.2 0.9444444
vt 0.175 0.9444444
vt 0.15 0.9444444
vt 0.35 0.8055556
vt 0.375 0.8055556
vt 0.325 0.8055556
vt 0.15 0.5277778
vt 0.175 0.5277778
vt 0.175 0.5555556
vt 0.15 0.5555556
vt 0.125 0.5277778
vt 0.125 0.5555556
vt 0.825 0.9722222
vt 0.85 0.9722222
vt 0.85 1
vt 0.825 1
vt 0.875 0.9444444
vt 0.9 0.9444444
vt 0.9 0.9722222
vt 0.875 0.9722222
vt 0.25 0.9166667
vt 0.275 0.9166667
vt 0.225 0.9166667
vt 0.2 0.9166667
vt 0.175 0.9166667
vt 0.15 0.9166667
vt 0.35 0.7777778
vt 0.375 0.7777778
vt 0.325 0.7777778
vt 0.15 0.5
vt 0.175 0.5
vt 0.825 0.9444444
vt 0.85 0.9444444
vt 0.8 0.9444444
vt 0.8 0.9722222
vt 0.25 0.8888889
vt 0.275 0.8888889
vt 0.225 0.8888889
vt 0.2 0.8888889
vt 0.175 0.8888889
vt 0.15 0.8888889
vt 0.8 0.9166667
vt 0.825 0.9166667
vt 0.25 0.8611111
vt 0.275 0.8611111
vt 0.225 0.8611111
vt 0.2 0.8611111
vt 0.175 0.8611111
vt 0.15 0.8611111
vt 0.05 0.1666667
vt 0.075 0.1666667
vt 0.075 0.1944444
vt 0.05 0.1944444
vt 0.025 0.1666667
vt 0.025 0.1944444
vt 0 0.1666667
vt 0 0.1944444
vt 0.125 0.8333333
vt 0.15 0.8333333
vt 0.125 0.8611111
vt 0.1 0.8333333
vt 0.1 0.8611111
vt 0.075 0.8333333
vt 0.075 0.8611111
vt 0.05 0.1388889
vt 0.075 0.1388889
vt 0.025 0.1388889
vt 0 0.1388889
vt 0.05 0.1111111
vt 0.075 0.1111111
vt 0.025 0.1111111
vt 0 0.1111111
vt 0.6 0.7222222
vt 0.625 0.7222222
vt 0.625 0.75
vt 0.6 0.75
vt 0.575 0.7222222
vt 0.575 0.75
vt 0.55 0.7222222
vt 0.55 0.75
vt 0.6 0.6944444
vt 0.625 0.6944444
vt 0.575 0.6944444
vt 0.55 0.6944444
vt 0.6 0.6666666
vt 0.625 0.6666666
vt 0.575 0.6666666
vt 0.55 0.6666666
vt 0.8 0.8888889
vt 0.825 0.8888889
vt 0.775 0.8888889
vt 0.775 0.9166667
vt 0.8 0.8611111
vt 0.825 0.8611111
vt 0.775 0.8611111
vt 0.075 0.4722222

# Normal
vn 0 0 -1

# Mesh description
g map1_mesh_0006

# Faces
f 1/1/1 2/2/1 3/3/1 4/4/1
f 5/5/1 6/6/1 7/7/1 8/8/1
f 9/9/1 10/5/1 11/8/1 12/10/1
f 13/11/1 14/9/1 15/10/1 16/12/1
f 17/13/1 18/11/1 19/12/1 20/14/1
f 21/15/1 22/13/1 23/14/1 24/16/1
f 25/17/1 26/18/1 27/19/1 28/20/1
f 29/21/1 30/17/1 31/20/1 32/22/1
f 33/23/1 34/24/1 35/25/1 36/2/1
f 37/26/1 38/27/1 39/6/1 40/5/1
f 41/28/1 42/26/1 43/5/1 44/9/1
f 45/29/1 46/28/1 47/9/1 48/11/1
f 49/30/1 50/29/1 51/11/1 52/13/1
f 53/31/1 54/30/1 55/13/1 56/15/1
f 57/32/1 58/33/1 59/18/1 60/17/1
f 61/34/1 62/32/1 63/17/1 64/21/1
f 65/35/1 66/36/1 67/37/1 68/38/1
f 69/39/1 70/35/1 71/38/1 72/40/1
f 73/23/1 74/24/1 75/25/1 76/2/1
f 77/41/1 78/42/1 79/43/1 80/44/1
f 81/45/1 82/46/1 83/47/1 84/48/1
f 85/49/1 86/50/1 87/27/1 88/26/1
f 89/51/1 90/49/1 91/26/1 92/28/1
f 93/52/1 94/51/1 95/28/1 96/29/1
f 97/53/1 98/52/1 99/29/1 100/30/1
f 101/54/1 102/53/1 103/30/1 104/31/1
f 105/55/1 106/56/1 107/33/1 108/32/1
f 109/57/1 110/55/1 111/32/1 112/34/1
f 113/58/1 114/59/1 115/36/1 116/35/1
f 117/25/1 118/58/1 119/35/1 120/39/1
f 121/23/1 122/24/1 123/25/1 124/2/1
f 125/60/1 126/61/1 127/42/1 128/41/1
f 129/62/1 130/60/1 131/41/1 132/63/1
f 133/64/1 134/65/1 135/50/1 136/49/1
f 137/66/1 138/64/1 139/49/1 140/51/1
f 141/67/1 142/66/1 143/51/1 144/52/1
f 145/68/1 146/67/1 147/52/1 148/53/1
f 149/69/1 150/68/1 151/53/1 152/54/1
f 153/23/1 154/24/1 155/25/1 156/2/1
f 157/41/1 158/42/1 159/43/1 160/44/1
f 161/70/1 162/71/1 163/60/1 164/62/1
f 165/72/1 166/73/1 167/65/1 168/64/1
f 169/74/1 170/72/1 171/64/1 172/66/1
f 173/75/1 174/74/1 175/66/1 176/67/1
f 177/76/1 178/75/1 179/67/1 180/68/1
f 181/77/1 182/76/1 183/68/1 184/69/1
f 185/78/1 186/79/1 187/80/1 188/81/1
f 189/82/1 190/78/1 191/81/1 192/83/1
f 193/84/1 194/82/1 195/83/1 196/85/1
f 197/23/1 198/24/1 199/25/1 200/2/1
f 201/60/1 202/61/1 203/42/1 204/41/1
f 205/86/1 206/87/1 207/77/1 208/88/1
f 209/89/1 210/86/1 211/88/1 212/90/1
f 213/91/1 214/89/1 215/90/1 216/92/1
f 217/45/1 218/46/1 219/47/1 220/48/1
f 221/93/1 222/94/1 223/79/1 224/78/1
f 225/95/1 226/93/1 227/78/1 228/82/1
f 229/96/1 230/95/1 231/82/1 232/84/1
f 233/23/1 234/24/1 235/25/1 236/2/1
f 237/41/1 238/42/1 239/43/1 240/44/1
f 241/97/1 242/98/1 243/94/1 244/93/1
f 245/99/1 246/97/1 247/93/1 248/95/1
f 249/100/1 250/99/1 251/95/1 252/96/1
f 253/23/1 254/24/1 255/25/1 256/2/1
f 257/60/1 258/61/1 259/42/1 260/41/1
f 261/101/1 262/102/1 263/103/1 264/104/1
f 265/105/1 266/101/1 267/104/1 268/106/1
f 269/107/1 270/105/1 271/106/1 272/108/1
f 273/101/1 274/102/1 275/103/1 276/104/1
f 277/105/1 278/101/1 279/104/1 280/106/1
f 281/107/1 282/105/1 283/106/1 284/108/1
f 285/23/1 286/24/1 287/25/1 288/2/1
f 289/109/1 290/110/1 291/102/1 292/101/1
f 293/111/1 294/109/1 295/101/1 296/105/1
f 297/112/1 298/111/1 299/105/1 300/107/1
f 301/109/1 302/110/1 303/102/1 304/101/1
f 305/111/1 306/109/1 307/101/1 308/105/1
f 309/112/1 310/111/1 311/105/1 312/107/1
f 313/23/1 314/24/1 315/25/1 316/2/1
f 317/113/1 318/114/1 319/110/1 320/109/1
f 321/115/1 322/113/1 323/109/1 324/111/1
f 325/116/1 326/115/1 327/111/1 328/112/1
f 329/113/1 330/114/1 331/110/1 332/109/1
f 333/115/1 334/113/1 335/109/1 336/111/1
f 337/116/1 338/115/1 339/111/1 340/112/1
f 341/23/1 342/24/1 343/25/1 344/2/1
f 345/23/1 346/24/1 347/25/1 348/2/1
f 349/117/1 350/118/1 351/71/1 352/70/1
f 353/119/1 354/117/1 355/70/1 356/120/1
f 357/23/1 358/24/1 359/25/1 360/2/1
f 361/121/1 362/122/1 363/118/1 364/117/1
f 365/123/1 366/121/1 367/117/1 368/119/1
f 369/23/1 370/24/1 371/25/1 372/2/1
f 373/23/1 374/24/1 375/25/1 376/2/1
f 377/124/1 378/23/1 379/2/1 380/1/1

