# Tiled2Unity generated file. Do not modify by hand.
# Wavefront file for 'map1Linktest_mesh_0004.obj'

# Vertices (Count = 348)
v -60 -54 0
v -61 -54 0
v -61 -53 0
v -60 -53 0
v -59 -54 0
v -60 -54 0
v -60 -53 0
v -59 -53 0
v -58 -54 0
v -59 -54 0
v -59 -53 0
v -58 -53 0
v -57 -54 0
v -58 -54 0
v -58 -53 0
v -57 -53 0
v -56 -54 0
v -57 -54 0
v -57 -53 0
v -56 -53 0
v -55 -54 0
v -56 -54 0
v -56 -53 0
v -55 -53 0
v -54 -54 0
v -55 -54 0
v -55 -53 0
v -54 -53 0
v -53 -54 0
v -54 -54 0
v -54 -53 0
v -53 -53 0
v -52 -54 0
v -53 -54 0
v -53 -53 0
v -52 -53 0
v -51 -54 0
v -52 -54 0
v -52 -53 0
v -51 -53 0
v -50 -54 0
v -51 -54 0
v -51 -53 0
v -50 -53 0
v -49 -54 0
v -50 -54 0
v -50 -53 0
v -49 -53 0
v -48 -54 0
v -49 -54 0
v -49 -53 0
v -48 -53 0
v -47 -54 0
v -48 -54 0
v -48 -53 0
v -47 -53 0
v -46 -54 0
v -47 -54 0
v -47 -53 0
v -46 -53 0
v -45 -54 0
v -46 -54 0
v -46 -53 0
v -45 -53 0
v -44 -54 0
v -45 -54 0
v -45 -53 0
v -44 -53 0
v -43 -54 0
v -44 -54 0
v -44 -53 0
v -43 -53 0
v -42 -54 0
v -43 -54 0
v -43 -53 0
v -42 -53 0
v -41 -54 0
v -42 -54 0
v -42 -53 0
v -41 -53 0
v -40 -54 0
v -41 -54 0
v -41 -53 0
v -40 -53 0
v -39 -54 0
v -40 -54 0
v -40 -53 0
v -39 -53 0
v -38 -54 0
v -39 -54 0
v -39 -53 0
v -38 -53 0
v -37 -54 0
v -38 -54 0
v -38 -53 0
v -37 -53 0
v -36 -54 0
v -37 -54 0
v -37 -53 0
v -36 -53 0
v -60 -55 0
v -61 -55 0
v -61 -54 0
v -60 -54 0
v -36 -55 0
v -37 -55 0
v -37 -54 0
v -36 -54 0
v -60 -56 0
v -61 -56 0
v -61 -55 0
v -60 -55 0
v -36 -56 0
v -37 -56 0
v -37 -55 0
v -36 -55 0
v -60 -57 0
v -61 -57 0
v -61 -56 0
v -60 -56 0
v -36 -57 0
v -37 -57 0
v -37 -56 0
v -36 -56 0
v -60 -58 0
v -61 -58 0
v -61 -57 0
v -60 -57 0
v -36 -58 0
v -37 -58 0
v -37 -57 0
v -36 -57 0
v -60 -59 0
v -61 -59 0
v -61 -58 0
v -60 -58 0
v -53 -59 0
v -54 -59 0
v -54 -58 0
v -53 -58 0
v -52 -59 0
v -53 -59 0
v -53 -58 0
v -52 -58 0
v -51 -59 0
v -52 -59 0
v -52 -58 0
v -51 -58 0
v -36 -59 0
v -37 -59 0
v -37 -58 0
v -36 -58 0
v -60 -60 0
v -61 -60 0
v -61 -59 0
v -60 -59 0
v -36 -60 0
v -37 -60 0
v -37 -59 0
v -36 -59 0
v -60 -61 0
v -61 -61 0
v -61 -60 0
v -60 -60 0
v -36 -61 0
v -37 -61 0
v -37 -60 0
v -36 -60 0
v -60 -62 0
v -61 -62 0
v -61 -61 0
v -60 -61 0
v -38 -62 0
v -39 -62 0
v -39 -61 0
v -38 -61 0
v -37 -62 0
v -38 -62 0
v -38 -61 0
v -37 -61 0
v -36 -62 0
v -37 -62 0
v -37 -61 0
v -36 -61 0
v -60 -63 0
v -61 -63 0
v -61 -62 0
v -60 -62 0
v -38 -63 0
v -39 -63 0
v -39 -62 0
v -38 -62 0
v -37 -63 0
v -38 -63 0
v -38 -62 0
v -37 -62 0
v -36 -63 0
v -37 -63 0
v -37 -62 0
v -36 -62 0
v -60 -64 0
v -61 -64 0
v -61 -63 0
v -60 -63 0
v -36 -64 0
v -37 -64 0
v -37 -63 0
v -36 -63 0
v -60 -65 0
v -61 -65 0
v -61 -64 0
v -60 -64 0
v -36 -65 0
v -37 -65 0
v -37 -64 0
v -36 -64 0
v -60 -66 0
v -61 -66 0
v -61 -65 0
v -60 -65 0
v -36 -66 0
v -37 -66 0
v -37 -65 0
v -36 -65 0
v -60 -67 0
v -61 -67 0
v -61 -66 0
v -60 -66 0
v -36 -67 0
v -37 -67 0
v -37 -66 0
v -36 -66 0
v -60 -68 0
v -61 -68 0
v -61 -67 0
v -60 -67 0
v -36 -68 0
v -37 -68 0
v -37 -67 0
v -36 -67 0
v -60 -69 0
v -61 -69 0
v -61 -68 0
v -60 -68 0
v -36 -69 0
v -37 -69 0
v -37 -68 0
v -36 -68 0
v -60 -70 0
v -61 -70 0
v -61 -69 0
v -60 -69 0
v -59 -70 0
v -60 -70 0
v -60 -69 0
v -59 -69 0
v -58 -70 0
v -59 -70 0
v -59 -69 0
v -58 -69 0
v -57 -70 0
v -58 -70 0
v -58 -69 0
v -57 -69 0
v -56 -70 0
v -57 -70 0
v -57 -69 0
v -56 -69 0
v -55 -70 0
v -56 -70 0
v -56 -69 0
v -55 -69 0
v -54 -70 0
v -55 -70 0
v -55 -69 0
v -54 -69 0
v -53 -70 0
v -54 -70 0
v -54 -69 0
v -53 -69 0
v -52 -70 0
v -53 -70 0
v -53 -69 0
v -52 -69 0
v -51 -70 0
v -52 -70 0
v -52 -69 0
v -51 -69 0
v -50 -70 0
v -51 -70 0
v -51 -69 0
v -50 -69 0
v -49 -70 0
v -50 -70 0
v -50 -69 0
v -49 -69 0
v -48 -70 0
v -49 -70 0
v -49 -69 0
v -48 -69 0
v -47 -70 0
v -48 -70 0
v -48 -69 0
v -47 -69 0
v -46 -70 0
v -47 -70 0
v -47 -69 0
v -46 -69 0
v -45 -70 0
v -46 -70 0
v -46 -69 0
v -45 -69 0
v -44 -70 0
v -45 -70 0
v -45 -69 0
v -44 -69 0
v -43 -70 0
v -44 -70 0
v -44 -69 0
v -43 -69 0
v -42 -70 0
v -43 -70 0
v -43 -69 0
v -42 -69 0
v -41 -70 0
v -42 -70 0
v -42 -69 0
v -41 -69 0
v -40 -70 0
v -41 -70 0
v -41 -69 0
v -40 -69 0
v -39 -70 0
v -40 -70 0
v -40 -69 0
v -39 -69 0
v -38 -70 0
v -39 -70 0
v -39 -69 0
v -38 -69 0
v -37 -70 0
v -38 -70 0
v -38 -69 0
v -37 -69 0
v -36 -70 0
v -37 -70 0
v -37 -69 0
v -36 -69 0

# Texture cooridinates (Count = 29)
vt 0.075 0.5
vt 0.1 0.5
vt 0.1 0.5277778
vt 0.075 0.5277778
vt 0.125 0.5
vt 0.125 0.5277778
vt 0.05 0.5
vt 0.05 0.5277778
vt 0.1 0.4722222
vt 0.125 0.4722222
vt 0.125 0.8333333
vt 0.15 0.8333333
vt 0.15 0.8611111
vt 0.125 0.8611111
vt 0.1 0.8333333
vt 0.1 0.8611111
vt 0.075 0.8333333
vt 0.075 0.8611111
vt 0.125 0.9444444
vt 0.15 0.9444444
vt 0.15 0.9722222
vt 0.125 0.9722222
vt 0.1 0.9444444
vt 0.1 0.9722222
vt 0.125 0.9166667
vt 0.15 0.9166667
vt 0.1 0.9166667
vt 0.075 0.4722222
vt 0.05 0.4722222

# Normal
vn 0 0 -1

# Mesh description
g map1Linktest_mesh_0004

# Faces
f 1/1/1 2/2/1 3/3/1 4/4/1
f 5/2/1 6/5/1 7/6/1 8/3/1
f 9/2/1 10/5/1 11/6/1 12/3/1
f 13/2/1 14/5/1 15/6/1 16/3/1
f 17/2/1 18/5/1 19/6/1 20/3/1
f 21/2/1 22/5/1 23/6/1 24/3/1
f 25/2/1 26/5/1 27/6/1 28/3/1
f 29/2/1 30/5/1 31/6/1 32/3/1
f 33/2/1 34/5/1 35/6/1 36/3/1
f 37/2/1 38/5/1 39/6/1 40/3/1
f 41/2/1 42/5/1 43/6/1 44/3/1
f 45/2/1 46/5/1 47/6/1 48/3/1
f 49/2/1 50/5/1 51/6/1 52/3/1
f 53/2/1 54/5/1 55/6/1 56/3/1
f 57/2/1 58/5/1 59/6/1 60/3/1
f 61/2/1 62/5/1 63/6/1 64/3/1
f 65/2/1 66/5/1 67/6/1 68/3/1
f 69/2/1 70/5/1 71/6/1 72/3/1
f 73/2/1 74/5/1 75/6/1 76/3/1
f 77/2/1 78/5/1 79/6/1 80/3/1
f 81/2/1 82/5/1 83/6/1 84/3/1
f 85/2/1 86/5/1 87/6/1 88/3/1
f 89/2/1 90/5/1 91/6/1 92/3/1
f 93/2/1 94/5/1 95/6/1 96/3/1
f 97/7/1 98/1/1 99/4/1 100/8/1
f 101/9/1 102/10/1 103/5/1 104/2/1
f 105/9/1 106/10/1 107/5/1 108/2/1
f 109/9/1 110/10/1 111/5/1 112/2/1
f 113/9/1 114/10/1 115/5/1 116/2/1
f 117/9/1 118/10/1 119/5/1 120/2/1
f 121/9/1 122/10/1 123/5/1 124/2/1
f 125/9/1 126/10/1 127/5/1 128/2/1
f 129/9/1 130/10/1 131/5/1 132/2/1
f 133/9/1 134/10/1 135/5/1 136/2/1
f 137/11/1 138/12/1 139/13/1 140/14/1
f 141/15/1 142/11/1 143/14/1 144/16/1
f 145/17/1 146/15/1 147/16/1 148/18/1
f 149/9/1 150/10/1 151/5/1 152/2/1
f 153/9/1 154/10/1 155/5/1 156/2/1
f 157/9/1 158/10/1 159/5/1 160/2/1
f 161/9/1 162/10/1 163/5/1 164/2/1
f 165/9/1 166/10/1 167/5/1 168/2/1
f 169/9/1 170/10/1 171/5/1 172/2/1
f 173/19/1 174/20/1 175/21/1 176/22/1
f 177/23/1 178/19/1 179/22/1 180/24/1
f 181/9/1 182/10/1 183/5/1 184/2/1
f 185/9/1 186/10/1 187/5/1 188/2/1
f 189/25/1 190/26/1 191/20/1 192/19/1
f 193/27/1 194/25/1 195/19/1 196/23/1
f 197/9/1 198/10/1 199/5/1 200/2/1
f 201/9/1 202/10/1 203/5/1 204/2/1
f 205/9/1 206/10/1 207/5/1 208/2/1
f 209/9/1 210/10/1 211/5/1 212/2/1
f 213/9/1 214/10/1 215/5/1 216/2/1
f 217/9/1 218/10/1 219/5/1 220/2/1
f 221/9/1 222/10/1 223/5/1 224/2/1
f 225/9/1 226/10/1 227/5/1 228/2/1
f 229/9/1 230/10/1 231/5/1 232/2/1
f 233/9/1 234/10/1 235/5/1 236/2/1
f 237/9/1 238/10/1 239/5/1 240/2/1
f 241/9/1 242/10/1 243/5/1 244/2/1
f 245/9/1 246/10/1 247/5/1 248/2/1
f 249/28/1 250/9/1 251/2/1 252/1/1
f 253/2/1 254/5/1 255/6/1 256/3/1
f 257/2/1 258/5/1 259/6/1 260/3/1
f 261/2/1 262/5/1 263/6/1 264/3/1
f 265/2/1 266/5/1 267/6/1 268/3/1
f 269/2/1 270/5/1 271/6/1 272/3/1
f 273/2/1 274/5/1 275/6/1 276/3/1
f 277/2/1 278/5/1 279/6/1 280/3/1
f 281/2/1 282/5/1 283/6/1 284/3/1
f 285/2/1 286/5/1 287/6/1 288/3/1
f 289/2/1 290/5/1 291/6/1 292/3/1
f 293/2/1 294/5/1 295/6/1 296/3/1
f 297/2/1 298/5/1 299/6/1 300/3/1
f 301/2/1 302/5/1 303/6/1 304/3/1
f 305/2/1 306/5/1 307/6/1 308/3/1
f 309/2/1 310/5/1 311/6/1 312/3/1
f 313/2/1 314/5/1 315/6/1 316/3/1
f 317/2/1 318/5/1 319/6/1 320/3/1
f 321/2/1 322/5/1 323/6/1 324/3/1
f 325/2/1 326/5/1 327/6/1 328/3/1
f 329/2/1 330/5/1 331/6/1 332/3/1
f 333/2/1 334/5/1 335/6/1 336/3/1
f 337/2/1 338/5/1 339/6/1 340/3/1
f 341/2/1 342/5/1 343/6/1 344/3/1
f 345/29/1 346/28/1 347/1/1 348/7/1

