# Tiled2Unity generated file. Do not modify by hand.
# Wavefront file for 'map1Linktest_mesh_0003.obj'

# Vertices (Count = 252)
v -59 -55 0
v -60 -55 0
v -60 -54 0
v -59 -54 0
v -58 -55 0
v -59 -55 0
v -59 -54 0
v -58 -54 0
v -57 -55 0
v -58 -55 0
v -58 -54 0
v -57 -54 0
v -56 -55 0
v -57 -55 0
v -57 -54 0
v -56 -54 0
v -55 -55 0
v -56 -55 0
v -56 -54 0
v -55 -54 0
v -54 -55 0
v -55 -55 0
v -55 -54 0
v -54 -54 0
v -53 -55 0
v -54 -55 0
v -54 -54 0
v -53 -54 0
v -38 -55 0
v -39 -55 0
v -39 -54 0
v -38 -54 0
v -37 -55 0
v -38 -55 0
v -38 -54 0
v -37 -54 0
v -59 -56 0
v -60 -56 0
v -60 -55 0
v -59 -55 0
v -58 -56 0
v -59 -56 0
v -59 -55 0
v -58 -55 0
v -57 -56 0
v -58 -56 0
v -58 -55 0
v -57 -55 0
v -56 -56 0
v -57 -56 0
v -57 -55 0
v -56 -55 0
v -55 -56 0
v -56 -56 0
v -56 -55 0
v -55 -55 0
v -54 -56 0
v -55 -56 0
v -55 -55 0
v -54 -55 0
v -53 -56 0
v -54 -56 0
v -54 -55 0
v -53 -55 0
v -39 -56 0
v -40 -56 0
v -40 -55 0
v -39 -55 0
v -38 -56 0
v -39 -56 0
v -39 -55 0
v -38 -55 0
v -57 -57 0
v -58 -57 0
v -58 -56 0
v -57 -56 0
v -53 -57 0
v -54 -57 0
v -54 -56 0
v -53 -56 0
v -52 -57 0
v -53 -57 0
v -53 -56 0
v -52 -56 0
v -51 -57 0
v -52 -57 0
v -52 -56 0
v -51 -56 0
v -39 -57 0
v -40 -57 0
v -40 -56 0
v -39 -56 0
v -38 -57 0
v -39 -57 0
v -39 -56 0
v -38 -56 0
v -57 -58 0
v -58 -58 0
v -58 -57 0
v -57 -57 0
v -53 -58 0
v -54 -58 0
v -54 -57 0
v -53 -57 0
v -52 -58 0
v -53 -58 0
v -53 -57 0
v -52 -57 0
v -51 -58 0
v -52 -58 0
v -52 -57 0
v -51 -57 0
v -58 -59 0
v -59 -59 0
v -59 -58 0
v -58 -58 0
v -57 -59 0
v -58 -59 0
v -58 -58 0
v -57 -58 0
v -45 -59 0
v -46 -59 0
v -46 -58 0
v -45 -58 0
v -47 -60 0
v -48 -60 0
v -48 -59 0
v -47 -59 0
v -45 -60 0
v -46 -60 0
v -46 -59 0
v -45 -59 0
v -59 -61 0
v -60 -61 0
v -60 -60 0
v -59 -60 0
v -59 -62 0
v -60 -62 0
v -60 -61 0
v -59 -61 0
v -59 -63 0
v -60 -63 0
v -60 -62 0
v -59 -62 0
v -56 -63 0
v -57 -63 0
v -57 -62 0
v -56 -62 0
v -55 -63 0
v -56 -63 0
v -56 -62 0
v -55 -62 0
v -54 -63 0
v -55 -63 0
v -55 -62 0
v -54 -62 0
v -42 -63 0
v -43 -63 0
v -43 -62 0
v -42 -62 0
v -41 -63 0
v -42 -63 0
v -42 -62 0
v -41 -62 0
v -40 -63 0
v -41 -63 0
v -41 -62 0
v -40 -62 0
v -59 -64 0
v -60 -64 0
v -60 -63 0
v -59 -63 0
v -56 -64 0
v -57 -64 0
v -57 -63 0
v -56 -63 0
v -55 -64 0
v -56 -64 0
v -56 -63 0
v -55 -63 0
v -54 -64 0
v -55 -64 0
v -55 -63 0
v -54 -63 0
v -42 -64 0
v -43 -64 0
v -43 -63 0
v -42 -63 0
v -41 -64 0
v -42 -64 0
v -42 -63 0
v -41 -63 0
v -40 -64 0
v -41 -64 0
v -41 -63 0
v -40 -63 0
v -56 -65 0
v -57 -65 0
v -57 -64 0
v -56 -64 0
v -55 -65 0
v -56 -65 0
v -56 -64 0
v -55 -64 0
v -54 -65 0
v -55 -65 0
v -55 -64 0
v -54 -64 0
v -42 -65 0
v -43 -65 0
v -43 -64 0
v -42 -64 0
v -41 -65 0
v -42 -65 0
v -42 -64 0
v -41 -64 0
v -40 -65 0
v -41 -65 0
v -41 -64 0
v -40 -64 0
v -59 -68 0
v -60 -68 0
v -60 -67 0
v -59 -67 0
v -58 -68 0
v -59 -68 0
v -59 -67 0
v -58 -67 0
v -38 -68 0
v -39 -68 0
v -39 -67 0
v -38 -67 0
v -37 -68 0
v -38 -68 0
v -38 -67 0
v -37 -67 0
v -59 -69 0
v -60 -69 0
v -60 -68 0
v -59 -68 0
v -58 -69 0
v -59 -69 0
v -59 -68 0
v -58 -68 0
v -38 -69 0
v -39 -69 0
v -39 -68 0
v -38 -68 0
v -37 -69 0
v -38 -69 0
v -38 -68 0
v -37 -68 0

# Texture cooridinates (Count = 76)
vt 0.9 0.75
vt 0.925 0.75
vt 0.925 0.7777778
vt 0.9 0.7777778
vt 0.875 0.75
vt 0.875 0.7777778
vt 0.8 0.9722222
vt 0.825 0.9722222
vt 0.825 1
vt 0.8 1
vt 0.9 0.7222222
vt 0.925 0.7222222
vt 0.875 0.7222222
vt 0.8 0.8888889
vt 0.825 0.8888889
vt 0.825 0.9166667
vt 0.8 0.9166667
vt 0.775 0.8888889
vt 0.775 0.9166667
vt 0.925 0.9722222
vt 0.95 0.9722222
vt 0.95 1
vt 0.925 1
vt 0.8 0.9444444
vt 0.825 0.9444444
vt 0.8 0.8611111
vt 0.825 0.8611111
vt 0.775 0.8611111
vt 0.875 0.9444444
vt 0.9 0.9444444
vt 0.9 0.9722222
vt 0.875 0.9722222
vt 0.85 0.9166667
vt 0.875 0.9166667
vt 0.85 0.9444444
vt 0.675 0.8611111
vt 0.7 0.8611111
vt 0.7 0.8888889
vt 0.675 0.8888889
vt 0.675 0.8333333
vt 0.7 0.8333333
vt 0.675 0.8055556
vt 0.7 0.8055556
vt 0.6 0.7222222
vt 0.625 0.7222222
vt 0.625 0.75
vt 0.6 0.75
vt 0.575 0.7222222
vt 0.575 0.75
vt 0.55 0.7222222
vt 0.55 0.75
vt 0.675 0.7777778
vt 0.7 0.7777778
vt 0.6 0.6944444
vt 0.625 0.6944444
vt 0.575 0.6944444
vt 0.55 0.6944444
vt 0.6 0.6666666
vt 0.625 0.6666666
vt 0.575 0.6666666
vt 0.55 0.6666666
vt 0.425 0.2222222
vt 0.45 0.2222222
vt 0.45 0.25
vt 0.425 0.25
vt 0.4 0.2222222
vt 0.4 0.25
vt 0.375 0.2222222
vt 0.375 0.25
vt 0.35 0.2222222
vt 0.35 0.25
vt 0.425 0.1944444
vt 0.45 0.1944444
vt 0.4 0.1944444
vt 0.375 0.1944444
vt 0.35 0.1944444

# Normal
vn 0 0 -1

# Mesh description
g map1Linktest_mesh_0003

# Faces
f 1/1/1 2/2/1 3/3/1 4/4/1
f 5/5/1 6/1/1 7/4/1 8/6/1
f 9/1/1 10/2/1 11/3/1 12/4/1
f 13/5/1 14/1/1 15/4/1 16/6/1
f 17/1/1 18/2/1 19/3/1 20/4/1
f 21/5/1 22/1/1 23/4/1 24/6/1
f 25/7/1 26/8/1 27/9/1 28/10/1
f 29/7/1 30/8/1 31/9/1 32/10/1
f 33/7/1 34/8/1 35/9/1 36/10/1
f 37/11/1 38/12/1 39/2/1 40/1/1
f 41/13/1 42/11/1 43/1/1 44/5/1
f 45/11/1 46/12/1 47/2/1 48/1/1
f 49/13/1 50/11/1 51/1/1 52/5/1
f 53/11/1 54/12/1 55/2/1 56/1/1
f 57/13/1 58/11/1 59/1/1 60/5/1
f 61/7/1 62/8/1 63/9/1 64/10/1
f 65/14/1 66/15/1 67/16/1 68/17/1
f 69/18/1 70/14/1 71/17/1 72/19/1
f 73/20/1 74/21/1 75/22/1 76/23/1
f 77/24/1 78/25/1 79/8/1 80/7/1
f 81/24/1 82/25/1 83/8/1 84/7/1
f 85/24/1 86/25/1 87/8/1 88/7/1
f 89/26/1 90/27/1 91/15/1 92/14/1
f 93/28/1 94/26/1 95/14/1 96/18/1
f 97/20/1 98/21/1 99/22/1 100/23/1
f 101/17/1 102/16/1 103/25/1 104/24/1
f 105/17/1 106/16/1 107/25/1 108/24/1
f 109/17/1 110/16/1 111/25/1 112/24/1
f 113/29/1 114/30/1 115/31/1 116/32/1
f 117/20/1 118/21/1 119/22/1 120/23/1
f 121/24/1 122/25/1 123/8/1 124/7/1
f 125/33/1 126/34/1 127/29/1 128/35/1
f 129/17/1 130/16/1 131/25/1 132/24/1
f 133/36/1 134/37/1 135/38/1 136/39/1
f 137/40/1 138/41/1 139/37/1 140/36/1
f 141/42/1 142/43/1 143/41/1 144/40/1
f 145/44/1 146/45/1 147/46/1 148/47/1
f 149/48/1 150/44/1 151/47/1 152/49/1
f 153/50/1 154/48/1 155/49/1 156/51/1
f 157/44/1 158/45/1 159/46/1 160/47/1
f 161/48/1 162/44/1 163/47/1 164/49/1
f 165/50/1 166/48/1 167/49/1 168/51/1
f 169/52/1 170/53/1 171/43/1 172/42/1
f 173/54/1 174/55/1 175/45/1 176/44/1
f 177/56/1 178/54/1 179/44/1 180/48/1
f 181/57/1 182/56/1 183/48/1 184/50/1
f 185/54/1 186/55/1 187/45/1 188/44/1
f 189/56/1 190/54/1 191/44/1 192/48/1
f 193/57/1 194/56/1 195/48/1 196/50/1
f 197/58/1 198/59/1 199/55/1 200/54/1
f 201/60/1 202/58/1 203/54/1 204/56/1
f 205/61/1 206/60/1 207/56/1 208/57/1
f 209/58/1 210/59/1 211/55/1 212/54/1
f 213/60/1 214/58/1 215/54/1 216/56/1
f 217/61/1 218/60/1 219/56/1 220/57/1
f 221/62/1 222/63/1 223/64/1 224/65/1
f 225/66/1 226/62/1 227/65/1 228/67/1
f 229/68/1 230/66/1 231/67/1 232/69/1
f 233/70/1 234/68/1 235/69/1 236/71/1
f 237/72/1 238/73/1 239/63/1 240/62/1
f 241/74/1 242/72/1 243/62/1 244/66/1
f 245/75/1 246/74/1 247/66/1 248/68/1
f 249/76/1 250/75/1 251/68/1 252/70/1

