# Tiled2Unity generated file. Do not modify by hand.
# Wavefront file for 'DungeonRoomBattle_mesh_0006.obj'

# Vertices (Count = 32)
v -57 -42 0
v -58 -42 0
v -58 -41 0
v -57 -41 0
v -56 -42 0
v -57 -42 0
v -57 -41 0
v -56 -41 0
v -39 -42 0
v -40 -42 0
v -40 -41 0
v -39 -41 0
v -38 -42 0
v -39 -42 0
v -39 -41 0
v -38 -41 0
v -57 -43 0
v -58 -43 0
v -58 -42 0
v -57 -42 0
v -56 -43 0
v -57 -43 0
v -57 -42 0
v -56 -42 0
v -39 -43 0
v -40 -43 0
v -40 -42 0
v -39 -42 0
v -38 -43 0
v -39 -43 0
v -39 -42 0
v -38 -42 0

# Texture cooridinates (Count = 9)
vt 0.5866666 0.9466667
vt 0.64 0.9466667
vt 0.64 1
vt 0.5866666 1
vt 0.5333334 0.9466667
vt 0.5333334 1
vt 0.5866666 0.8933333
vt 0.64 0.8933333
vt 0.5333334 0.8933333

# Normal
vn 0 0 -1

# Mesh description
g DungeonRoomBattle_mesh_0006

# Faces
f 1/1/1 2/2/1 3/3/1 4/4/1
f 5/5/1 6/1/1 7/4/1 8/6/1
f 9/1/1 10/2/1 11/3/1 12/4/1
f 13/5/1 14/1/1 15/4/1 16/6/1
f 17/7/1 18/8/1 19/2/1 20/1/1
f 21/9/1 22/7/1 23/1/1 24/5/1
f 25/7/1 26/8/1 27/2/1 28/1/1
f 29/9/1 30/7/1 31/1/1 32/5/1

