# Tiled2Unity generated file. Do not modify by hand.
# Wavefront file for 'DungeonRoomBattle_mesh_0007.obj'

# Vertices (Count = 96)
v -52 -49 0
v -53 -49 0
v -53 -48 0
v -52 -48 0
v -51 -49 0
v -52 -49 0
v -52 -48 0
v -51 -48 0
v -42 -49 0
v -43 -49 0
v -43 -48 0
v -42 -48 0
v -41 -49 0
v -42 -49 0
v -42 -48 0
v -41 -48 0
v -52 -50 0
v -53 -50 0
v -53 -49 0
v -52 -49 0
v -51 -50 0
v -52 -50 0
v -52 -49 0
v -51 -49 0
v -42 -50 0
v -43 -50 0
v -43 -49 0
v -42 -49 0
v -41 -50 0
v -42 -50 0
v -42 -49 0
v -41 -49 0
v -52 -51 0
v -53 -51 0
v -53 -50 0
v -52 -50 0
v -51 -51 0
v -52 -51 0
v -52 -50 0
v -51 -50 0
v -42 -51 0
v -43 -51 0
v -43 -50 0
v -42 -50 0
v -41 -51 0
v -42 -51 0
v -42 -50 0
v -41 -50 0
v -52 -52 0
v -53 -52 0
v -53 -51 0
v -52 -51 0
v -51 -52 0
v -52 -52 0
v -52 -51 0
v -51 -51 0
v -42 -52 0
v -43 -52 0
v -43 -51 0
v -42 -51 0
v -41 -52 0
v -42 -52 0
v -42 -51 0
v -41 -51 0
v -52 -53 0
v -53 -53 0
v -53 -52 0
v -52 -52 0
v -51 -53 0
v -52 -53 0
v -52 -52 0
v -51 -52 0
v -42 -53 0
v -43 -53 0
v -43 -52 0
v -42 -52 0
v -41 -53 0
v -42 -53 0
v -42 -52 0
v -41 -52 0
v -52 -54 0
v -53 -54 0
v -53 -53 0
v -52 -53 0
v -51 -54 0
v -52 -54 0
v -52 -53 0
v -51 -53 0
v -42 -54 0
v -43 -54 0
v -43 -53 0
v -42 -53 0
v -41 -54 0
v -42 -54 0
v -42 -53 0
v -41 -53 0

# Texture cooridinates (Count = 18)
vt 0.2083333 0.4583333
vt 0.1666667 0.4583333
vt 0.1666667 0.4166667
vt 0.2083333 0.4166667
vt 0.25 0.4583333
vt 0.25 0.4166667
vt 0.2083333 0.5416666
vt 0.25 0.5416666
vt 0.25 0.5833334
vt 0.2083333 0.5833334
vt 0.1666667 0.5416666
vt 0.1666667 0.5833334
vt 0.2083333 0.5
vt 0.25 0.5
vt 0.1666667 0.5
vt 0.2083333 0.375
vt 0.25 0.375
vt 0.1666667 0.375

# Normal
vn 0 0 -1

# Mesh description
g DungeonRoomBattle_mesh_0007

# Faces
f 1/1/1 2/2/1 3/3/1 4/4/1
f 5/5/1 6/1/1 7/4/1 8/6/1
f 9/1/1 10/2/1 11/3/1 12/4/1
f 13/5/1 14/1/1 15/4/1 16/6/1
f 17/7/1 18/8/1 19/9/1 20/10/1
f 21/11/1 22/7/1 23/10/1 24/12/1
f 25/7/1 26/8/1 27/9/1 28/10/1
f 29/11/1 30/7/1 31/10/1 32/12/1
f 33/13/1 34/14/1 35/8/1 36/7/1
f 37/15/1 38/13/1 39/7/1 40/11/1
f 41/13/1 42/14/1 43/8/1 44/7/1
f 45/15/1 46/13/1 47/7/1 48/11/1
f 49/1/1 50/5/1 51/14/1 52/13/1
f 53/2/1 54/1/1 55/13/1 56/15/1
f 57/1/1 58/5/1 59/14/1 60/13/1
f 61/2/1 62/1/1 63/13/1 64/15/1
f 65/4/1 66/6/1 67/5/1 68/1/1
f 69/3/1 70/4/1 71/1/1 72/2/1
f 73/4/1 74/6/1 75/5/1 76/1/1
f 77/3/1 78/4/1 79/1/1 80/2/1
f 81/16/1 82/17/1 83/6/1 84/4/1
f 85/18/1 86/16/1 87/4/1 88/3/1
f 89/16/1 90/17/1 91/6/1 92/4/1
f 93/18/1 94/16/1 95/4/1 96/3/1

