# Tiled2Unity generated file. Do not modify by hand.
# Wavefront file for 'DungeonRoomBattle_mesh_0002.obj'

# Vertices (Count = 520)
v -60 -41 0
v -61 -41 0
v -61 -40 0
v -60 -40 0
v -59 -41 0
v -60 -41 0
v -60 -40 0
v -59 -40 0
v -58 -41 0
v -59 -41 0
v -59 -40 0
v -58 -40 0
v -57 -41 0
v -58 -41 0
v -58 -40 0
v -57 -40 0
v -56 -41 0
v -57 -41 0
v -57 -40 0
v -56 -40 0
v -55 -41 0
v -56 -41 0
v -56 -40 0
v -55 -40 0
v -54 -41 0
v -55 -41 0
v -55 -40 0
v -54 -40 0
v -53 -41 0
v -54 -41 0
v -54 -40 0
v -53 -40 0
v -52 -41 0
v -53 -41 0
v -53 -40 0
v -52 -40 0
v -51 -41 0
v -52 -41 0
v -52 -40 0
v -51 -40 0
v -50 -41 0
v -51 -41 0
v -51 -40 0
v -50 -40 0
v -49 -41 0
v -50 -41 0
v -50 -40 0
v -49 -40 0
v -48 -41 0
v -49 -41 0
v -49 -40 0
v -48 -40 0
v -47 -41 0
v -48 -41 0
v -48 -40 0
v -47 -40 0
v -46 -41 0
v -47 -41 0
v -47 -40 0
v -46 -40 0
v -45 -41 0
v -46 -41 0
v -46 -40 0
v -45 -40 0
v -44 -41 0
v -45 -41 0
v -45 -40 0
v -44 -40 0
v -43 -41 0
v -44 -41 0
v -44 -40 0
v -43 -40 0
v -42 -41 0
v -43 -41 0
v -43 -40 0
v -42 -40 0
v -41 -41 0
v -42 -41 0
v -42 -40 0
v -41 -40 0
v -40 -41 0
v -41 -41 0
v -41 -40 0
v -40 -40 0
v -39 -41 0
v -40 -41 0
v -40 -40 0
v -39 -40 0
v -38 -41 0
v -39 -41 0
v -39 -40 0
v -38 -40 0
v -37 -41 0
v -38 -41 0
v -38 -40 0
v -37 -40 0
v -36 -41 0
v -37 -41 0
v -37 -40 0
v -36 -40 0
v -35 -41 0
v -36 -41 0
v -36 -40 0
v -35 -40 0
v -60 -42 0
v -61 -42 0
v -61 -41 0
v -60 -41 0
v -59 -42 0
v -60 -42 0
v -60 -41 0
v -59 -41 0
v -58 -42 0
v -59 -42 0
v -59 -41 0
v -58 -41 0
v -57 -42 0
v -58 -42 0
v -58 -41 0
v -57 -41 0
v -56 -42 0
v -57 -42 0
v -57 -41 0
v -56 -41 0
v -55 -42 0
v -56 -42 0
v -56 -41 0
v -55 -41 0
v -54 -42 0
v -55 -42 0
v -55 -41 0
v -54 -41 0
v -53 -42 0
v -54 -42 0
v -54 -41 0
v -53 -41 0
v -52 -42 0
v -53 -42 0
v -53 -41 0
v -52 -41 0
v -51 -42 0
v -52 -42 0
v -52 -41 0
v -51 -41 0
v -50 -42 0
v -51 -42 0
v -51 -41 0
v -50 -41 0
v -49 -42 0
v -50 -42 0
v -50 -41 0
v -49 -41 0
v -48 -42 0
v -49 -42 0
v -49 -41 0
v -48 -41 0
v -47 -42 0
v -48 -42 0
v -48 -41 0
v -47 -41 0
v -46 -42 0
v -47 -42 0
v -47 -41 0
v -46 -41 0
v -45 -42 0
v -46 -42 0
v -46 -41 0
v -45 -41 0
v -44 -42 0
v -45 -42 0
v -45 -41 0
v -44 -41 0
v -43 -42 0
v -44 -42 0
v -44 -41 0
v -43 -41 0
v -42 -42 0
v -43 -42 0
v -43 -41 0
v -42 -41 0
v -41 -42 0
v -42 -42 0
v -42 -41 0
v -41 -41 0
v -40 -42 0
v -41 -42 0
v -41 -41 0
v -40 -41 0
v -39 -42 0
v -40 -42 0
v -40 -41 0
v -39 -41 0
v -38 -42 0
v -39 -42 0
v -39 -41 0
v -38 -41 0
v -37 -42 0
v -38 -42 0
v -38 -41 0
v -37 -41 0
v -36 -42 0
v -37 -42 0
v -37 -41 0
v -36 -41 0
v -35 -42 0
v -36 -42 0
v -36 -41 0
v -35 -41 0
v -60 -43 0
v -61 -43 0
v -61 -42 0
v -60 -42 0
v -59 -43 0
v -60 -43 0
v -60 -42 0
v -59 -42 0
v -58 -43 0
v -59 -43 0
v -59 -42 0
v -58 -42 0
v -57 -43 0
v -58 -43 0
v -58 -42 0
v -57 -42 0
v -56 -43 0
v -57 -43 0
v -57 -42 0
v -56 -42 0
v -55 -43 0
v -56 -43 0
v -56 -42 0
v -55 -42 0
v -54 -43 0
v -55 -43 0
v -55 -42 0
v -54 -42 0
v -53 -43 0
v -54 -43 0
v -54 -42 0
v -53 -42 0
v -52 -43 0
v -53 -43 0
v -53 -42 0
v -52 -42 0
v -51 -43 0
v -52 -43 0
v -52 -42 0
v -51 -42 0
v -50 -43 0
v -51 -43 0
v -51 -42 0
v -50 -42 0
v -49 -43 0
v -50 -43 0
v -50 -42 0
v -49 -42 0
v -48 -43 0
v -49 -43 0
v -49 -42 0
v -48 -42 0
v -47 -43 0
v -48 -43 0
v -48 -42 0
v -47 -42 0
v -46 -43 0
v -47 -43 0
v -47 -42 0
v -46 -42 0
v -45 -43 0
v -46 -43 0
v -46 -42 0
v -45 -42 0
v -44 -43 0
v -45 -43 0
v -45 -42 0
v -44 -42 0
v -43 -43 0
v -44 -43 0
v -44 -42 0
v -43 -42 0
v -42 -43 0
v -43 -43 0
v -43 -42 0
v -42 -42 0
v -41 -43 0
v -42 -43 0
v -42 -42 0
v -41 -42 0
v -40 -43 0
v -41 -43 0
v -41 -42 0
v -40 -42 0
v -39 -43 0
v -40 -43 0
v -40 -42 0
v -39 -42 0
v -38 -43 0
v -39 -43 0
v -39 -42 0
v -38 -42 0
v -37 -43 0
v -38 -43 0
v -38 -42 0
v -37 -42 0
v -36 -43 0
v -37 -43 0
v -37 -42 0
v -36 -42 0
v -35 -43 0
v -36 -43 0
v -36 -42 0
v -35 -42 0
v -60 -44 0
v -61 -44 0
v -61 -43 0
v -60 -43 0
v -59 -44 0
v -60 -44 0
v -60 -43 0
v -59 -43 0
v -58 -44 0
v -59 -44 0
v -59 -43 0
v -58 -43 0
v -57 -44 0
v -58 -44 0
v -58 -43 0
v -57 -43 0
v -56 -44 0
v -57 -44 0
v -57 -43 0
v -56 -43 0
v -55 -44 0
v -56 -44 0
v -56 -43 0
v -55 -43 0
v -54 -44 0
v -55 -44 0
v -55 -43 0
v -54 -43 0
v -53 -44 0
v -54 -44 0
v -54 -43 0
v -53 -43 0
v -52 -44 0
v -53 -44 0
v -53 -43 0
v -52 -43 0
v -51 -44 0
v -52 -44 0
v -52 -43 0
v -51 -43 0
v -50 -44 0
v -51 -44 0
v -51 -43 0
v -50 -43 0
v -49 -44 0
v -50 -44 0
v -50 -43 0
v -49 -43 0
v -48 -44 0
v -49 -44 0
v -49 -43 0
v -48 -43 0
v -47 -44 0
v -48 -44 0
v -48 -43 0
v -47 -43 0
v -46 -44 0
v -47 -44 0
v -47 -43 0
v -46 -43 0
v -45 -44 0
v -46 -44 0
v -46 -43 0
v -45 -43 0
v -44 -44 0
v -45 -44 0
v -45 -43 0
v -44 -43 0
v -43 -44 0
v -44 -44 0
v -44 -43 0
v -43 -43 0
v -42 -44 0
v -43 -44 0
v -43 -43 0
v -42 -43 0
v -41 -44 0
v -42 -44 0
v -42 -43 0
v -41 -43 0
v -40 -44 0
v -41 -44 0
v -41 -43 0
v -40 -43 0
v -39 -44 0
v -40 -44 0
v -40 -43 0
v -39 -43 0
v -38 -44 0
v -39 -44 0
v -39 -43 0
v -38 -43 0
v -37 -44 0
v -38 -44 0
v -38 -43 0
v -37 -43 0
v -36 -44 0
v -37 -44 0
v -37 -43 0
v -36 -43 0
v -35 -44 0
v -36 -44 0
v -36 -43 0
v -35 -43 0
v -60 -45 0
v -61 -45 0
v -61 -44 0
v -60 -44 0
v -59 -45 0
v -60 -45 0
v -60 -44 0
v -59 -44 0
v -58 -45 0
v -59 -45 0
v -59 -44 0
v -58 -44 0
v -57 -45 0
v -58 -45 0
v -58 -44 0
v -57 -44 0
v -56 -45 0
v -57 -45 0
v -57 -44 0
v -56 -44 0
v -55 -45 0
v -56 -45 0
v -56 -44 0
v -55 -44 0
v -54 -45 0
v -55 -45 0
v -55 -44 0
v -54 -44 0
v -53 -45 0
v -54 -45 0
v -54 -44 0
v -53 -44 0
v -52 -45 0
v -53 -45 0
v -53 -44 0
v -52 -44 0
v -51 -45 0
v -52 -45 0
v -52 -44 0
v -51 -44 0
v -50 -45 0
v -51 -45 0
v -51 -44 0
v -50 -44 0
v -49 -45 0
v -50 -45 0
v -50 -44 0
v -49 -44 0
v -48 -45 0
v -49 -45 0
v -49 -44 0
v -48 -44 0
v -47 -45 0
v -48 -45 0
v -48 -44 0
v -47 -44 0
v -46 -45 0
v -47 -45 0
v -47 -44 0
v -46 -44 0
v -45 -45 0
v -46 -45 0
v -46 -44 0
v -45 -44 0
v -44 -45 0
v -45 -45 0
v -45 -44 0
v -44 -44 0
v -43 -45 0
v -44 -45 0
v -44 -44 0
v -43 -44 0
v -42 -45 0
v -43 -45 0
v -43 -44 0
v -42 -44 0
v -41 -45 0
v -42 -45 0
v -42 -44 0
v -41 -44 0
v -40 -45 0
v -41 -45 0
v -41 -44 0
v -40 -44 0
v -39 -45 0
v -40 -45 0
v -40 -44 0
v -39 -44 0
v -38 -45 0
v -39 -45 0
v -39 -44 0
v -38 -44 0
v -37 -45 0
v -38 -45 0
v -38 -44 0
v -37 -44 0
v -36 -45 0
v -37 -45 0
v -37 -44 0
v -36 -44 0
v -35 -45 0
v -36 -45 0
v -36 -44 0
v -35 -44 0

# Texture cooridinates (Count = 42)
vt 0.4583333 0.75
vt 0.5 0.75
vt 0.5 0.7916667
vt 0.4583333 0.7916667
vt 0.4166667 0.75
vt 0.4166667 0.7916667
vt 0.2916667 0.75
vt 0.3333333 0.75
vt 0.3333333 0.7916667
vt 0.2916667 0.7916667
vt 0.375 0.75
vt 0.375 0.7916667
vt 0.25 0.75
vt 0.25 0.7916667
vt 0.4583333 0.7083334
vt 0.5 0.7083334
vt 0.4166667 0.7083334
vt 0.2916667 0.7083334
vt 0.3333333 0.7083334
vt 0.375 0.7083334
vt 0.25 0.7083334
vt 0.4583333 0.6666666
vt 0.5 0.6666666
vt 0.4166667 0.6666666
vt 0.2916667 0.6666666
vt 0.3333333 0.6666666
vt 0.375 0.6666666
vt 0.25 0.6666666
vt 0.4583333 0.625
vt 0.5 0.625
vt 0.4166667 0.625
vt 0.2916667 0.625
vt 0.3333333 0.625
vt 0.375 0.625
vt 0.25 0.625
vt 0.4583333 0.5833334
vt 0.5 0.5833334
vt 0.4166667 0.5833334
vt 0.2916667 0.5833334
vt 0.3333333 0.5833334
vt 0.375 0.5833334
vt 0.25 0.5833334

# Normal
vn 0 0 -1

# Mesh description
g DungeonRoomBattle_mesh_0002

# Faces
f 1/1/1 2/2/1 3/3/1 4/4/1
f 5/5/1 6/1/1 7/4/1 8/6/1
f 9/7/1 10/8/1 11/9/1 12/10/1
f 13/7/1 14/8/1 15/9/1 16/10/1
f 17/7/1 18/8/1 19/9/1 20/10/1
f 21/7/1 22/8/1 23/9/1 24/10/1
f 25/7/1 26/8/1 27/9/1 28/10/1
f 29/7/1 30/8/1 31/9/1 32/10/1
f 33/7/1 34/8/1 35/9/1 36/10/1
f 37/7/1 38/8/1 39/9/1 40/10/1
f 41/7/1 42/8/1 43/9/1 44/10/1
f 45/7/1 46/8/1 47/9/1 48/10/1
f 49/7/1 50/8/1 51/9/1 52/10/1
f 53/7/1 54/8/1 55/9/1 56/10/1
f 57/7/1 58/8/1 59/9/1 60/10/1
f 61/7/1 62/8/1 63/9/1 64/10/1
f 65/7/1 66/8/1 67/9/1 68/10/1
f 69/7/1 70/8/1 71/9/1 72/10/1
f 73/7/1 74/8/1 75/9/1 76/10/1
f 77/7/1 78/8/1 79/9/1 80/10/1
f 81/7/1 82/8/1 83/9/1 84/10/1
f 85/7/1 86/8/1 87/9/1 88/10/1
f 89/7/1 90/8/1 91/9/1 92/10/1
f 93/8/1 94/11/1 95/12/1 96/9/1
f 97/7/1 98/8/1 99/9/1 100/10/1
f 101/13/1 102/7/1 103/10/1 104/14/1
f 105/15/1 106/16/1 107/2/1 108/1/1
f 109/17/1 110/15/1 111/1/1 112/5/1
f 113/18/1 114/19/1 115/8/1 116/7/1
f 117/18/1 118/19/1 119/8/1 120/7/1
f 121/18/1 122/19/1 123/8/1 124/7/1
f 125/18/1 126/19/1 127/8/1 128/7/1
f 129/18/1 130/19/1 131/8/1 132/7/1
f 133/18/1 134/19/1 135/8/1 136/7/1
f 137/18/1 138/19/1 139/8/1 140/7/1
f 141/18/1 142/19/1 143/8/1 144/7/1
f 145/18/1 146/19/1 147/8/1 148/7/1
f 149/18/1 150/19/1 151/8/1 152/7/1
f 153/18/1 154/19/1 155/8/1 156/7/1
f 157/18/1 158/19/1 159/8/1 160/7/1
f 161/18/1 162/19/1 163/8/1 164/7/1
f 165/18/1 166/19/1 167/8/1 168/7/1
f 169/18/1 170/19/1 171/8/1 172/7/1
f 173/18/1 174/19/1 175/8/1 176/7/1
f 177/18/1 178/19/1 179/8/1 180/7/1
f 181/18/1 182/19/1 183/8/1 184/7/1
f 185/18/1 186/19/1 187/8/1 188/7/1
f 189/18/1 190/19/1 191/8/1 192/7/1
f 193/18/1 194/19/1 195/8/1 196/7/1
f 197/19/1 198/20/1 199/11/1 200/8/1
f 201/18/1 202/19/1 203/8/1 204/7/1
f 205/21/1 206/18/1 207/7/1 208/13/1
f 209/22/1 210/23/1 211/16/1 212/15/1
f 213/24/1 214/22/1 215/15/1 216/17/1
f 217/25/1 218/26/1 219/19/1 220/18/1
f 221/25/1 222/26/1 223/19/1 224/18/1
f 225/25/1 226/26/1 227/19/1 228/18/1
f 229/25/1 230/26/1 231/19/1 232/18/1
f 233/25/1 234/26/1 235/19/1 236/18/1
f 237/25/1 238/26/1 239/19/1 240/18/1
f 241/25/1 242/26/1 243/19/1 244/18/1
f 245/25/1 246/26/1 247/19/1 248/18/1
f 249/25/1 250/26/1 251/19/1 252/18/1
f 253/25/1 254/26/1 255/19/1 256/18/1
f 257/25/1 258/26/1 259/19/1 260/18/1
f 261/25/1 262/26/1 263/19/1 264/18/1
f 265/25/1 266/26/1 267/19/1 268/18/1
f 269/25/1 270/26/1 271/19/1 272/18/1
f 273/25/1 274/26/1 275/19/1 276/18/1
f 277/25/1 278/26/1 279/19/1 280/18/1
f 281/25/1 282/26/1 283/19/1 284/18/1
f 285/25/1 286/26/1 287/19/1 288/18/1
f 289/25/1 290/26/1 291/19/1 292/18/1
f 293/25/1 294/26/1 295/19/1 296/18/1
f 297/25/1 298/26/1 299/19/1 300/18/1
f 301/26/1 302/27/1 303/20/1 304/19/1
f 305/25/1 306/26/1 307/19/1 308/18/1
f 309/28/1 310/25/1 311/18/1 312/21/1
f 313/29/1 314/30/1 315/23/1 316/22/1
f 317/31/1 318/29/1 319/22/1 320/24/1
f 321/32/1 322/33/1 323/26/1 324/25/1
f 325/32/1 326/33/1 327/26/1 328/25/1
f 329/32/1 330/33/1 331/26/1 332/25/1
f 333/32/1 334/33/1 335/26/1 336/25/1
f 337/32/1 338/33/1 339/26/1 340/25/1
f 341/32/1 342/33/1 343/26/1 344/25/1
f 345/32/1 346/33/1 347/26/1 348/25/1
f 349/32/1 350/33/1 351/26/1 352/25/1
f 353/32/1 354/33/1 355/26/1 356/25/1
f 357/32/1 358/33/1 359/26/1 360/25/1
f 361/32/1 362/33/1 363/26/1 364/25/1
f 365/32/1 366/33/1 367/26/1 368/25/1
f 369/32/1 370/33/1 371/26/1 372/25/1
f 373/32/1 374/33/1 375/26/1 376/25/1
f 377/32/1 378/33/1 379/26/1 380/25/1
f 381/32/1 382/33/1 383/26/1 384/25/1
f 385/32/1 386/33/1 387/26/1 388/25/1
f 389/32/1 390/33/1 391/26/1 392/25/1
f 393/32/1 394/33/1 395/26/1 396/25/1
f 397/32/1 398/33/1 399/26/1 400/25/1
f 401/32/1 402/33/1 403/26/1 404/25/1
f 405/33/1 406/34/1 407/27/1 408/26/1
f 409/32/1 410/33/1 411/26/1 412/25/1
f 413/35/1 414/32/1 415/25/1 416/28/1
f 417/36/1 418/37/1 419/30/1 420/29/1
f 421/38/1 422/36/1 423/29/1 424/31/1
f 425/39/1 426/40/1 427/33/1 428/32/1
f 429/39/1 430/40/1 431/33/1 432/32/1
f 433/39/1 434/40/1 435/33/1 436/32/1
f 437/39/1 438/40/1 439/33/1 440/32/1
f 441/39/1 442/40/1 443/33/1 444/32/1
f 445/39/1 446/40/1 447/33/1 448/32/1
f 449/39/1 450/40/1 451/33/1 452/32/1
f 453/39/1 454/40/1 455/33/1 456/32/1
f 457/39/1 458/40/1 459/33/1 460/32/1
f 461/39/1 462/40/1 463/33/1 464/32/1
f 465/39/1 466/40/1 467/33/1 468/32/1
f 469/39/1 470/40/1 471/33/1 472/32/1
f 473/39/1 474/40/1 475/33/1 476/32/1
f 477/39/1 478/40/1 479/33/1 480/32/1
f 481/39/1 482/40/1 483/33/1 484/32/1
f 485/39/1 486/40/1 487/33/1 488/32/1
f 489/39/1 490/40/1 491/33/1 492/32/1
f 493/39/1 494/40/1 495/33/1 496/32/1
f 497/39/1 498/40/1 499/33/1 500/32/1
f 501/39/1 502/40/1 503/33/1 504/32/1
f 505/39/1 506/40/1 507/33/1 508/32/1
f 509/40/1 510/41/1 511/34/1 512/33/1
f 513/39/1 514/40/1 515/33/1 516/32/1
f 517/42/1 518/39/1 519/32/1 520/35/1

